<svg xmlns="http://www.w3.org/2000/svg" xmlns:xlink="http://www.w3.org/1999/xlink" width="78" zoomAndPan="magnify" viewBox="0 0 58.5 30.000001" height="40" preserveAspectRatio="xMidYMid meet" version="1.0"><path fill="#ffffff" d="M 7.519531 8.730469 L 17.347656 8.730469 C 17.398438 8.730469 17.453125 8.734375 17.507812 8.746094 C 17.558594 8.753906 17.609375 8.769531 17.660156 8.789062 C 17.710938 8.8125 17.757812 8.835938 17.800781 8.867188 C 17.847656 8.894531 17.886719 8.929688 17.925781 8.96875 C 17.960938 9.007812 17.996094 9.046875 18.027344 9.09375 C 18.058594 9.136719 18.082031 9.183594 18.101562 9.234375 C 18.125 9.285156 18.140625 9.335938 18.148438 9.386719 C 18.160156 9.441406 18.164062 9.492188 18.164062 9.546875 C 18.164062 9.601562 18.160156 9.65625 18.148438 9.707031 C 18.140625 9.761719 18.125 9.8125 18.101562 9.859375 C 18.082031 9.910156 18.058594 9.957031 18.027344 10 C 17.996094 10.046875 17.960938 10.089844 17.925781 10.125 C 17.886719 10.164062 17.847656 10.199219 17.800781 10.226562 C 17.757812 10.257812 17.710938 10.285156 17.660156 10.304688 C 17.609375 10.324219 17.558594 10.339844 17.507812 10.351562 C 17.453125 10.359375 17.398438 10.367188 17.347656 10.367188 L 7.519531 10.367188 C 7.46875 10.367188 7.414062 10.359375 7.359375 10.351562 C 7.308594 10.339844 7.257812 10.324219 7.207031 10.304688 C 7.160156 10.285156 7.109375 10.257812 7.066406 10.226562 C 7.019531 10.199219 6.980469 10.164062 6.941406 10.125 C 6.902344 10.089844 6.871094 10.046875 6.839844 10 C 6.808594 9.957031 6.785156 9.910156 6.765625 9.859375 C 6.746094 9.8125 6.730469 9.761719 6.71875 9.707031 C 6.707031 9.65625 6.703125 9.601562 6.703125 9.546875 C 6.703125 9.492188 6.707031 9.441406 6.71875 9.386719 C 6.730469 9.335938 6.746094 9.285156 6.765625 9.234375 C 6.785156 9.183594 6.808594 9.136719 6.839844 9.09375 C 6.871094 9.046875 6.902344 9.007812 6.941406 8.96875 C 6.980469 8.929688 7.019531 8.894531 7.066406 8.867188 C 7.109375 8.835938 7.160156 8.8125 7.207031 8.789062 C 7.257812 8.769531 7.308594 8.753906 7.359375 8.746094 C 7.414062 8.734375 7.46875 8.730469 7.519531 8.730469 M 19.800781 6.273438 L 19.800781 7.910156 L 5.066406 7.910156 L 5.066406 6.273438 Z M 14.890625 11.183594 L 16.527344 11.183594 L 16.527344 22.648438 L 14.890625 22.648438 Z M 8.339844 11.183594 L 9.976562 11.183594 L 9.976562 22.648438 L 8.339844 22.648438 Z M 11.613281 11.183594 L 13.253906 11.183594 L 13.253906 22.648438 L 11.613281 22.648438 Z M 11.613281 11.183594 " fill-opacity="1" fill-rule="nonzero"/><path fill="#ffffff" d="M 22.207031 11.078125 L 23.160156 11.078125 L 23.160156 13.695312 L 24.769531 13.695312 L 24.769531 14.453125 L 22.207031 14.453125 Z M 22.207031 11.078125 " fill-opacity="1" fill-rule="nonzero"/><path fill="#ffffff" d="M 28.152344 13.796875 L 26.722656 13.796875 L 26.460938 14.453125 L 25.484375 14.453125 L 26.972656 11.078125 L 27.914062 11.078125 L 29.410156 14.453125 L 28.414062 14.453125 Z M 27.871094 13.09375 L 27.4375 12.011719 L 27.003906 13.09375 Z M 27.871094 13.09375 " fill-opacity="1" fill-rule="nonzero"/><path fill="#ffffff" d="M 32.121094 14.519531 C 31.765625 14.519531 31.445312 14.445312 31.160156 14.292969 C 30.875 14.140625 30.652344 13.933594 30.492188 13.667969 C 30.328125 13.402344 30.25 13.097656 30.25 12.765625 C 30.25 12.429688 30.328125 12.132812 30.492188 11.867188 C 30.652344 11.597656 30.875 11.390625 31.160156 11.238281 C 31.445312 11.085938 31.765625 11.007812 32.121094 11.007812 C 32.480469 11.007812 32.800781 11.085938 33.082031 11.238281 C 33.367188 11.390625 33.59375 11.597656 33.753906 11.867188 C 33.917969 12.132812 33.996094 12.429688 33.996094 12.765625 C 33.996094 13.097656 33.917969 13.402344 33.753906 13.667969 C 33.59375 13.933594 33.367188 14.140625 33.082031 14.292969 C 32.800781 14.445312 32.480469 14.519531 32.121094 14.519531 Z M 32.121094 13.726562 C 32.292969 13.726562 32.445312 13.6875 32.582031 13.609375 C 32.722656 13.527344 32.832031 13.414062 32.914062 13.269531 C 32.992188 13.121094 33.03125 12.953125 33.03125 12.765625 C 33.03125 12.578125 32.992188 12.410156 32.914062 12.265625 C 32.832031 12.117188 32.722656 12.003906 32.582031 11.921875 C 32.445312 11.839844 32.292969 11.800781 32.121094 11.800781 C 31.953125 11.800781 31.796875 11.839844 31.660156 11.921875 C 31.519531 12.003906 31.410156 12.117188 31.332031 12.265625 C 31.253906 12.410156 31.210938 12.578125 31.210938 12.765625 C 31.210938 12.953125 31.253906 13.121094 31.332031 13.269531 C 31.410156 13.414062 31.519531 13.527344 31.660156 13.609375 C 31.796875 13.6875 31.953125 13.726562 32.121094 13.726562 Z M 32.121094 13.726562 " fill-opacity="1" fill-rule="nonzero"/><path fill="#ffffff" d="M 35.242188 11.078125 L 36.839844 11.078125 C 37.207031 11.078125 37.535156 11.148438 37.820312 11.285156 C 38.105469 11.421875 38.328125 11.621094 38.484375 11.875 C 38.644531 12.128906 38.722656 12.425781 38.722656 12.765625 C 38.722656 13.105469 38.644531 13.402344 38.484375 13.660156 C 38.328125 13.914062 38.105469 14.109375 37.820312 14.246094 C 37.535156 14.382812 37.207031 14.453125 36.839844 14.453125 L 35.242188 14.453125 Z M 36.800781 13.691406 C 37.089844 13.691406 37.320312 13.609375 37.496094 13.445312 C 37.671875 13.28125 37.757812 13.054688 37.757812 12.765625 C 37.757812 12.476562 37.671875 12.25 37.496094 12.085938 C 37.320312 11.921875 37.089844 11.839844 36.800781 11.839844 L 36.195312 11.839844 L 36.195312 13.691406 Z M 36.800781 13.691406 " fill-opacity="1" fill-rule="nonzero"/><path fill="#ffffff" d="M 39.96875 11.078125 L 40.921875 11.078125 L 40.921875 14.453125 L 39.96875 14.453125 Z M 39.96875 11.078125 " fill-opacity="1" fill-rule="nonzero"/><path fill="#ffffff" d="M 43.644531 13.226562 L 43.289062 13.609375 L 43.289062 14.453125 L 42.34375 14.453125 L 42.34375 11.078125 L 43.289062 11.078125 L 43.289062 12.480469 L 44.597656 11.078125 L 45.648438 11.078125 L 44.265625 12.570312 L 45.71875 14.453125 L 44.609375 14.453125 Z M 43.644531 13.226562 " fill-opacity="1" fill-rule="nonzero"/><path fill="#ffffff" d="M 48.519531 13.242188 L 48.519531 14.453125 L 47.566406 14.453125 L 47.566406 13.226562 L 46.28125 11.078125 L 47.285156 11.078125 L 48.085938 12.417969 L 48.886719 11.078125 L 49.8125 11.078125 Z M 48.519531 13.242188 " fill-opacity="1" fill-rule="nonzero"/><path fill="#ffffff" d="M 53.058594 13.796875 L 51.628906 13.796875 L 51.367188 14.453125 L 50.390625 14.453125 L 51.882812 11.078125 L 52.820312 11.078125 L 54.316406 14.453125 L 53.320312 14.453125 Z M 52.777344 13.09375 L 52.34375 12.011719 L 51.910156 13.09375 Z M 52.777344 13.09375 " fill-opacity="1" fill-rule="nonzero"/><path fill="#ffffff" d="M 34.15625 18.175781 L 33.421875 18.175781 L 33.28125 18.503906 L 33.027344 18.503906 L 33.667969 17.046875 L 33.921875 17.046875 L 34.558594 18.503906 L 34.296875 18.503906 Z M 34.066406 17.957031 L 33.789062 17.308594 L 33.511719 17.957031 Z M 34.066406 17.957031 " fill-opacity="1" fill-rule="nonzero"/><path fill="#ffffff" d="M 36.191406 17.046875 L 36.191406 18.054688 C 36.191406 18.199219 36.152344 18.3125 36.074219 18.394531 C 35.992188 18.472656 35.882812 18.511719 35.738281 18.511719 C 35.566406 18.511719 35.425781 18.445312 35.3125 18.304688 L 35.429688 18.117188 C 35.527344 18.222656 35.628906 18.277344 35.738281 18.277344 C 35.804688 18.277344 35.855469 18.257812 35.890625 18.21875 C 35.925781 18.179688 35.945312 18.121094 35.945312 18.046875 L 35.945312 17.269531 L 35.441406 17.269531 L 35.441406 17.046875 Z M 36.191406 17.046875 " fill-opacity="1" fill-rule="nonzero"/><path fill="#ffffff" d="M 38.238281 18.175781 L 37.507812 18.175781 L 37.363281 18.503906 L 37.109375 18.503906 L 37.75 17.046875 L 38.007812 17.046875 L 38.640625 18.503906 L 38.378906 18.503906 Z M 38.148438 17.957031 L 37.871094 17.308594 L 37.59375 17.957031 Z M 38.148438 17.957031 " fill-opacity="1" fill-rule="nonzero"/><path fill="#ffffff" d="M 40.851562 18.503906 L 40.609375 18.503906 L 39.835938 17.460938 L 39.835938 18.503906 L 39.589844 18.503906 L 39.589844 17.046875 L 39.832031 17.046875 L 40.609375 18.09375 L 40.609375 17.046875 L 40.851562 17.046875 Z M 40.851562 18.503906 " fill-opacity="1" fill-rule="nonzero"/><path fill="#ffffff" d="M 42.46875 17.039062 C 42.65625 17.039062 42.828125 17.085938 42.976562 17.1875 L 42.875 17.402344 C 42.726562 17.3125 42.585938 17.269531 42.453125 17.269531 C 42.378906 17.269531 42.316406 17.28125 42.273438 17.308594 C 42.234375 17.335938 42.210938 17.371094 42.210938 17.421875 C 42.210938 17.46875 42.230469 17.507812 42.269531 17.542969 C 42.308594 17.578125 42.355469 17.601562 42.414062 17.617188 C 42.476562 17.632812 42.539062 17.65625 42.605469 17.679688 C 42.675781 17.703125 42.738281 17.730469 42.796875 17.757812 C 42.851562 17.785156 42.902344 17.828125 42.9375 17.882812 C 42.976562 17.941406 42.996094 18.007812 42.996094 18.089844 C 42.996094 18.21875 42.945312 18.320312 42.84375 18.398438 C 42.742188 18.476562 42.609375 18.511719 42.449219 18.511719 C 42.335938 18.511719 42.226562 18.492188 42.125 18.449219 C 42.019531 18.410156 41.929688 18.351562 41.851562 18.28125 L 41.960938 18.070312 C 42.03125 18.136719 42.113281 18.191406 42.199219 18.230469 C 42.289062 18.265625 42.375 18.28125 42.453125 18.28125 C 42.535156 18.28125 42.605469 18.265625 42.652344 18.234375 C 42.699219 18.203125 42.722656 18.160156 42.722656 18.105469 C 42.722656 18.058594 42.703125 18.015625 42.664062 17.980469 C 42.625 17.945312 42.578125 17.917969 42.519531 17.902344 C 42.460938 17.886719 42.398438 17.867188 42.332031 17.84375 C 42.261719 17.824219 42.199219 17.800781 42.140625 17.773438 C 42.082031 17.75 42.035156 17.707031 41.996094 17.652344 C 41.957031 17.59375 41.941406 17.523438 41.941406 17.445312 C 41.941406 17.320312 41.988281 17.222656 42.082031 17.148438 C 42.179688 17.074219 42.308594 17.039062 42.46875 17.039062 Z M 42.46875 17.039062 " fill-opacity="1" fill-rule="nonzero"/></svg>