<svg xmlns="http://www.w3.org/2000/svg" xmlns:xlink="http://www.w3.org/1999/xlink" width="78" zoomAndPan="magnify" viewBox="0 0 58.5 30.000001" height="40" preserveAspectRatio="xMidYMid meet" version="1.0"><path fill="#000000" d="M 7.542969 8.777344 L 17.375 8.777344 C 17.429688 8.777344 17.484375 8.78125 17.535156 8.792969 C 17.589844 8.804688 17.640625 8.820312 17.691406 8.839844 C 17.738281 8.859375 17.785156 8.886719 17.832031 8.914062 C 17.875 8.945312 17.917969 8.980469 17.957031 9.015625 C 17.992188 9.054688 18.027344 9.097656 18.058594 9.140625 C 18.085938 9.1875 18.113281 9.234375 18.132812 9.28125 C 18.152344 9.332031 18.167969 9.382812 18.179688 9.4375 C 18.191406 9.488281 18.195312 9.542969 18.195312 9.597656 C 18.195312 9.652344 18.191406 9.703125 18.179688 9.757812 C 18.167969 9.808594 18.152344 9.859375 18.132812 9.910156 C 18.113281 9.960938 18.085938 10.007812 18.058594 10.050781 C 18.027344 10.097656 17.992188 10.136719 17.957031 10.175781 C 17.917969 10.214844 17.875 10.246094 17.832031 10.277344 C 17.785156 10.308594 17.738281 10.332031 17.691406 10.355469 C 17.640625 10.375 17.589844 10.390625 17.535156 10.402344 C 17.484375 10.410156 17.429688 10.417969 17.375 10.417969 L 7.542969 10.417969 C 7.488281 10.417969 7.433594 10.410156 7.382812 10.402344 C 7.328125 10.390625 7.277344 10.375 7.226562 10.355469 C 7.179688 10.332031 7.132812 10.308594 7.085938 10.277344 C 7.042969 10.246094 7 10.214844 6.960938 10.175781 C 6.925781 10.136719 6.890625 10.097656 6.859375 10.050781 C 6.832031 10.007812 6.804688 9.960938 6.785156 9.910156 C 6.765625 9.859375 6.75 9.808594 6.738281 9.757812 C 6.726562 9.703125 6.722656 9.652344 6.722656 9.597656 C 6.722656 9.542969 6.726562 9.488281 6.738281 9.4375 C 6.75 9.382812 6.765625 9.332031 6.785156 9.28125 C 6.804688 9.234375 6.832031 9.1875 6.859375 9.140625 C 6.890625 9.097656 6.925781 9.054688 6.960938 9.015625 C 7 8.980469 7.042969 8.945312 7.085938 8.914062 C 7.132812 8.886719 7.179688 8.859375 7.226562 8.839844 C 7.277344 8.820312 7.328125 8.804688 7.382812 8.792969 C 7.433594 8.78125 7.488281 8.777344 7.542969 8.777344 M 19.835938 6.320312 L 19.835938 7.957031 L 5.082031 7.957031 L 5.082031 6.320312 Z M 14.917969 11.234375 L 16.554688 11.234375 L 16.554688 22.710938 L 14.917969 22.710938 Z M 8.359375 11.234375 L 10 11.234375 L 10 22.710938 L 8.359375 22.710938 Z M 11.640625 11.234375 L 13.277344 11.234375 L 13.277344 22.710938 L 11.640625 22.710938 Z M 11.640625 11.234375 " fill-opacity="1" fill-rule="nonzero"/><path fill="#000000" d="M 22.242188 11.128906 L 23.195312 11.128906 L 23.195312 13.75 L 24.804688 13.75 L 24.804688 14.507812 L 22.242188 14.507812 Z M 22.242188 11.128906 " fill-opacity="1" fill-rule="nonzero"/><path fill="#000000" d="M 28.191406 13.851562 L 26.761719 13.851562 L 26.496094 14.507812 L 25.519531 14.507812 L 27.011719 11.128906 L 27.953125 11.128906 L 29.449219 14.507812 L 28.453125 14.507812 Z M 27.910156 13.144531 L 27.476562 12.0625 L 27.042969 13.144531 Z M 27.910156 13.144531 " fill-opacity="1" fill-rule="nonzero"/><path fill="#000000" d="M 32.167969 14.574219 C 31.808594 14.574219 31.488281 14.5 31.203125 14.347656 C 30.917969 14.195312 30.695312 13.988281 30.535156 13.722656 C 30.371094 13.453125 30.289062 13.152344 30.289062 12.816406 C 30.289062 12.484375 30.371094 12.183594 30.535156 11.917969 C 30.695312 11.648438 30.917969 11.441406 31.203125 11.289062 C 31.488281 11.136719 31.808594 11.058594 32.167969 11.058594 C 32.523438 11.058594 32.84375 11.136719 33.128906 11.289062 C 33.414062 11.441406 33.636719 11.648438 33.800781 11.917969 C 33.960938 12.183594 34.042969 12.484375 34.042969 12.816406 C 34.042969 13.152344 33.960938 13.453125 33.800781 13.722656 C 33.636719 13.988281 33.414062 14.195312 33.128906 14.347656 C 32.84375 14.5 32.523438 14.574219 32.167969 14.574219 Z M 32.167969 13.78125 C 32.335938 13.78125 32.492188 13.742188 32.628906 13.660156 C 32.765625 13.582031 32.878906 13.46875 32.957031 13.324219 C 33.039062 13.175781 33.078125 13.007812 33.078125 12.816406 C 33.078125 12.628906 33.039062 12.460938 32.957031 12.316406 C 32.878906 12.167969 32.765625 12.054688 32.628906 11.972656 C 32.492188 11.890625 32.335938 11.851562 32.167969 11.851562 C 31.996094 11.851562 31.839844 11.890625 31.703125 11.972656 C 31.5625 12.054688 31.453125 12.167969 31.375 12.316406 C 31.296875 12.460938 31.253906 12.628906 31.253906 12.816406 C 31.253906 13.007812 31.296875 13.175781 31.375 13.324219 C 31.453125 13.46875 31.5625 13.582031 31.703125 13.660156 C 31.839844 13.742188 31.996094 13.78125 32.167969 13.78125 Z M 32.167969 13.78125 " fill-opacity="1" fill-rule="nonzero"/><path fill="#000000" d="M 35.289062 11.128906 L 36.886719 11.128906 C 37.257812 11.128906 37.585938 11.199219 37.871094 11.335938 C 38.15625 11.472656 38.378906 11.671875 38.535156 11.925781 C 38.691406 12.179688 38.773438 12.476562 38.773438 12.816406 C 38.773438 13.15625 38.691406 13.457031 38.535156 13.710938 C 38.378906 13.964844 38.15625 14.160156 37.871094 14.300781 C 37.585938 14.4375 37.257812 14.507812 36.886719 14.507812 L 35.289062 14.507812 Z M 36.847656 13.746094 C 37.136719 13.746094 37.371094 13.664062 37.542969 13.5 C 37.71875 13.332031 37.808594 13.105469 37.808594 12.816406 C 37.808594 12.527344 37.71875 12.304688 37.542969 12.140625 C 37.371094 11.972656 37.136719 11.890625 36.847656 11.890625 L 36.242188 11.890625 L 36.242188 13.746094 Z M 36.847656 13.746094 " fill-opacity="1" fill-rule="nonzero"/><path fill="#000000" d="M 40.019531 11.128906 L 40.972656 11.128906 L 40.972656 14.507812 L 40.019531 14.507812 Z M 40.019531 11.128906 " fill-opacity="1" fill-rule="nonzero"/><path fill="#000000" d="M 43.699219 13.28125 L 43.34375 13.660156 L 43.34375 14.507812 L 42.398438 14.507812 L 42.398438 11.128906 L 43.34375 11.128906 L 43.34375 12.535156 L 44.652344 11.128906 L 45.703125 11.128906 L 44.324219 12.625 L 45.777344 14.507812 L 44.664062 14.507812 Z M 43.699219 13.28125 " fill-opacity="1" fill-rule="nonzero"/><path fill="#000000" d="M 48.578125 13.296875 L 48.578125 14.507812 L 47.625 14.507812 L 47.625 13.28125 L 46.335938 11.128906 L 47.34375 11.128906 L 48.148438 12.472656 L 48.945312 11.128906 L 49.871094 11.128906 Z M 48.578125 13.296875 " fill-opacity="1" fill-rule="nonzero"/><path fill="#000000" d="M 53.121094 13.851562 L 51.691406 13.851562 L 51.429688 14.507812 L 50.453125 14.507812 L 51.945312 11.128906 L 52.882812 11.128906 L 54.378906 14.507812 L 53.386719 14.507812 Z M 52.839844 13.144531 L 52.40625 12.0625 L 51.972656 13.144531 Z M 52.839844 13.144531 " fill-opacity="1" fill-rule="nonzero"/><path fill="#000000" d="M 34.203125 18.230469 L 33.46875 18.230469 L 33.328125 18.5625 L 33.074219 18.5625 L 33.714844 17.101562 L 33.96875 17.101562 L 34.605469 18.5625 L 34.34375 18.5625 Z M 34.109375 18.011719 L 33.835938 17.367188 L 33.558594 18.011719 Z M 34.109375 18.011719 " fill-opacity="1" fill-rule="nonzero"/><path fill="#000000" d="M 36.238281 17.101562 L 36.238281 18.113281 C 36.238281 18.257812 36.199219 18.371094 36.121094 18.453125 C 36.039062 18.53125 35.929688 18.570312 35.789062 18.570312 C 35.613281 18.570312 35.472656 18.5 35.359375 18.359375 L 35.476562 18.175781 C 35.574219 18.28125 35.675781 18.335938 35.785156 18.335938 C 35.851562 18.335938 35.902344 18.316406 35.9375 18.277344 C 35.976562 18.238281 35.996094 18.179688 35.996094 18.105469 L 35.996094 17.324219 L 35.488281 17.324219 L 35.488281 17.101562 Z M 36.238281 17.101562 " fill-opacity="1" fill-rule="nonzero"/><path fill="#000000" d="M 38.289062 18.230469 L 37.554688 18.230469 L 37.414062 18.5625 L 37.160156 18.5625 L 37.800781 17.101562 L 38.054688 17.101562 L 38.691406 18.5625 L 38.429688 18.5625 Z M 38.195312 18.011719 L 37.921875 17.367188 L 37.644531 18.011719 Z M 38.195312 18.011719 " fill-opacity="1" fill-rule="nonzero"/><path fill="#000000" d="M 40.902344 18.5625 L 40.660156 18.5625 L 39.886719 17.515625 L 39.886719 18.5625 L 39.640625 18.5625 L 39.640625 17.101562 L 39.882812 17.101562 L 40.660156 18.152344 L 40.660156 17.101562 L 40.902344 17.101562 Z M 40.902344 18.5625 " fill-opacity="1" fill-rule="nonzero"/><path fill="#000000" d="M 42.523438 17.09375 C 42.710938 17.09375 42.878906 17.144531 43.03125 17.242188 L 42.929688 17.460938 C 42.78125 17.371094 42.640625 17.324219 42.503906 17.324219 C 42.429688 17.324219 42.371094 17.339844 42.328125 17.367188 C 42.285156 17.390625 42.265625 17.429688 42.265625 17.476562 C 42.265625 17.523438 42.285156 17.566406 42.324219 17.601562 C 42.363281 17.632812 42.410156 17.660156 42.46875 17.675781 C 42.527344 17.691406 42.59375 17.710938 42.660156 17.738281 C 42.726562 17.761719 42.792969 17.789062 42.851562 17.816406 C 42.90625 17.84375 42.957031 17.882812 42.992188 17.941406 C 43.03125 17.996094 43.050781 18.066406 43.050781 18.148438 C 43.050781 18.277344 43 18.378906 42.898438 18.457031 C 42.796875 18.535156 42.664062 18.570312 42.503906 18.570312 C 42.390625 18.570312 42.28125 18.550781 42.179688 18.507812 C 42.074219 18.464844 41.984375 18.410156 41.90625 18.339844 L 42.011719 18.128906 C 42.085938 18.195312 42.164062 18.25 42.253906 18.285156 C 42.34375 18.324219 42.425781 18.339844 42.503906 18.339844 C 42.589844 18.339844 42.65625 18.324219 42.707031 18.292969 C 42.753906 18.261719 42.777344 18.21875 42.777344 18.164062 C 42.777344 18.113281 42.757812 18.070312 42.71875 18.039062 C 42.679688 18 42.632812 17.976562 42.574219 17.960938 C 42.515625 17.945312 42.453125 17.925781 42.386719 17.902344 C 42.316406 17.882812 42.253906 17.855469 42.195312 17.832031 C 42.136719 17.804688 42.085938 17.765625 42.050781 17.707031 C 42.011719 17.648438 41.992188 17.582031 41.992188 17.5 C 41.992188 17.378906 42.039062 17.277344 42.136719 17.203125 C 42.234375 17.132812 42.363281 17.09375 42.523438 17.09375 Z M 42.523438 17.09375 " fill-opacity="1" fill-rule="nonzero"/></svg>